<svg width="192" height="238" viewBox="0 0 192 238" fill="none" xmlns="http://www.w3.org/2000/svg">
<rect width="154" height="135" rx="10" transform="matrix(-1 0 0 1 167.988 103)" fill="#DCBF25"/>
<rect width="154" height="142" rx="16" transform="matrix(-1 0 0 1 167.988 0)" fill="#DCBF25"/>
<path d="M13.9883 41H28.9883V62H151.988V50H167.988V95.5L13.9883 90V41Z" fill="#CCA723"/>
<rect width="180" height="46" rx="9" transform="matrix(-1 0 0 1 180.988 80)" fill="#DCBF25"/>
<path fill-rule="evenodd" clip-rule="evenodd" d="M84.0944 80C89.2241 85.5 112.023 92.5 124.562 93.5C143.646 95.022 169.752 95.1665 180.971 94.5011C180.982 94.3356 180.988 94.1685 180.988 94L180.988 87C180.988 83.134 177.854 80 173.988 80L83.9883 80C84.0253 80.0291 84.0582 80.0318 84.0944 80Z" fill="#E8CE45"/>
<rect width="123" height="48" rx="8" transform="matrix(-1 0 0 1 151.988 21)" fill="#0F0101"/>
<path d="M167.988 124L13.9884 122.5L167.988 172L167.988 124Z" fill="#CCA723"/>
</svg>
